<?xml version="1.0" encoding="UTF-8"?>
<svg id="Capa_1" xmlns="http://www.w3.org/2000/svg" version="1.1" viewBox="0 0 16 16">
  <!-- Generator: Adobe Illustrator 29.0.0, SVG Export Plug-In . SVG Version: 2.1.0 Build 186)  -->
  <defs>
    <style>
      .st0 {
        fill: none;
        stroke: #000;
        stroke-miterlimit: 10;
        stroke-width: .5px;
      }
    </style>
  </defs>
  <path d="M7.2,7.8c-.2-.1-.4,0-.5,0,0,0,0,.1,0,.2v3.6c0,.2.2.4.4.4,0,0,.1,0,.2,0l2.6-1.8c.2-.1.2-.3,0-.5,0,0,0,0,0,0l-2.6-1.8Z"/>
  <path d="M2.3,7c0-.8.7-1.5,1.5-1.5h8.8c.8,0,1.5.7,1.5,1.5v5.8c0,.8-.7,1.5-1.5,1.5H3.8c-.8,0-1.5-.7-1.5-1.5v-5.8ZM13.2,7c0-.4-.3-.7-.7-.7H3.8c-.4,0-.7.3-.7.7v5.8c0,.4.3.7.7.7h8.8c.4,0,.7-.3.7-.7v-5.8Z"/>
  <path class="st0" d="M2.6,7.1v-1.8c0-.6.4-1.2,1-1.2h9.2c.5,0,1,.5,1,1.2v1.8s-.1-.7-.8-1.1H3.6c0-.1-1-.3-1.1,1.1Z"/>
  <line class="st0" x1="3.7" y1="5.8" x2="2.7" y2="5.8"/>
  <line class="st0" x1="13.6" y1="5.8" x2="12.6" y2="5.8"/>
  <line class="st0" x1="4.9" y1="4.1" x2="5.3" y2="5.7"/>
  <line class="st0" x1="7.9" y1="4.2" x2="8.3" y2="5.8"/>
  <line class="st0" x1="11.1" y1="4.2" x2="11.5" y2="5.8"/>
</svg>